<?xml version="1.0" encoding="UTF-8" standalone="no"?>
<svg
   xmlns:dc="http://purl.org/dc/elements/1.1/"
   xmlns:cc="http://creativecommons.org/ns#"
   xmlns:rdf="http://www.w3.org/1999/02/22-rdf-syntax-ns#"
   xmlns:svg="http://www.w3.org/2000/svg"
   xmlns="http://www.w3.org/2000/svg"
   xmlns:xlink="http://www.w3.org/1999/xlink"
   xmlns:sodipodi="http://sodipodi.sourceforge.net/DTD/sodipodi-0.dtd"
   xmlns:inkscape="http://www.inkscape.org/namespaces/inkscape"
   sodipodi:docname="whatsapp3.svg"
   width="3000"
   height="3000"
   viewBox="0 0 793.74998 793.75002"
   version="1.1"
   id="svg1350"
   inkscape:version="1.0 (6e3e5246a0, 2020-05-07)">
  <defs
     id="defs1344">
    <linearGradient
       inkscape:collect="always"
       xlink:href="#linearGradient1644"
       id="linearGradient1694"
       gradientUnits="userSpaceOnUse"
       gradientTransform="matrix(0.8660254,0.5,-0.85707105,0.4948302,372.11892,48.165139)"
       x1="212.51054"
       y1="607.80444"
       x2="604.36194"
       y2="168.94814" />
    <linearGradient
       id="linearGradient1644"
       inkscape:collect="always">
      <stop
         id="stop1640"
         offset="0"
         style="stop-color:#d7cece;stop-opacity:1" />
      <stop
         style="stop-color:#cacaca;stop-opacity:1"
         offset="0.08219032"
         id="stop1658" />
      <stop
         style="stop-color:#aeaeae;stop-opacity:1"
         offset="0.16113155"
         id="stop1652" />
      <stop
         id="stop1656"
         offset="0.29358017"
         style="stop-color:#b7b3b3;stop-opacity:1;" />
      <stop
         style="stop-color:#c0b9b9;stop-opacity:1"
         offset="0.4188112"
         id="stop1646" />
      <stop
         id="stop1662"
         offset="0.4877373"
         style="stop-color:#ebcaca;stop-opacity:1" />
      <stop
         id="stop1660"
         offset="0.55935442"
         style="stop-color:#969191;stop-opacity:1" />
      <stop
         id="stop1648"
         offset="0.65620518"
         style="stop-color:#ffffff;stop-opacity:1" />
      <stop
         style="stop-color:#808080;stop-opacity:1"
         offset="0.78165948"
         id="stop1664" />
      <stop
         style="stop-color:#c6baba;stop-opacity:1"
         offset="0.83556467"
         id="stop1650" />
      <stop
         id="stop1654"
         offset="0.90906924"
         style="stop-color:#a5a4a4;stop-opacity:1;" />
      <stop
         id="stop1642"
         offset="1"
         style="stop-color:#b7b7b7;stop-opacity:1" />
    </linearGradient>
    <linearGradient
       inkscape:collect="always"
       xlink:href="#linearGradient852"
       id="linearGradient1692"
       gradientUnits="userSpaceOnUse"
       gradientTransform="matrix(1,0,0,0.98966043,228.64032,-201.04552)"
       x1="402.89734"
       y1="620.97882"
       x2="406.84952"
       y2="131.94653" />
    <linearGradient
       inkscape:collect="always"
       id="linearGradient852">
      <stop
         style="stop-color:#84e084;stop-opacity:1"
         offset="0"
         id="stop848" />
      <stop
         style="stop-color:#b4f4b4;stop-opacity:1"
         offset="1"
         id="stop850" />
    </linearGradient>
    <radialGradient
       inkscape:collect="always"
       xlink:href="#linearGradient874"
       id="radialGradient1690"
       gradientUnits="userSpaceOnUse"
       cx="373.71713"
       cy="347.86688"
       fx="373.71713"
       fy="347.86688"
       r="94.4104"
       gradientTransform="translate(-10.522761,-10.632699)" />
    <linearGradient
       inkscape:collect="always"
       id="linearGradient874">
      <stop
         style="stop-color:#85ff85;stop-opacity:1"
         offset="0"
         id="stop870" />
      <stop
         style="stop-color:#169016;stop-opacity:1"
         offset="1"
         id="stop872" />
    </linearGradient>
  </defs>
  <sodipodi:namedview
     id="base"
     pagecolor="#ffffff"
     bordercolor="#666666"
     borderopacity="1.0"
     inkscape:pageopacity="0.0"
     inkscape:pageshadow="2"
     inkscape:zoom="0.175"
     inkscape:cx="1233.2536"
     inkscape:cy="730.97476"
     inkscape:document-units="px"
     inkscape:current-layer="layer1"
     inkscape:document-rotation="0"
     showgrid="false"
     units="px"
     inkscape:pagecheckerboard="true"
     borderlayer="true" />
  <metadata
     id="metadata1347">
    <rdf:RDF>
      <cc:Work
         rdf:about="">
        <dc:format>image/svg+xml</dc:format>
        <dc:type
           rdf:resource="http://purl.org/dc/dcmitype/StillImage" />
        <dc:title></dc:title>
      </cc:Work>
    </rdf:RDF>
  </metadata>
  <g
     inkscape:label="Layer 1"
     inkscape:groupmode="layer"
     id="layer1">
    <g
       style="stroke-width:0.818614"
       transform="matrix(1.2209967,0,0,1.2221564,-83.406526,-110.72454)"
       id="g2693">
      <path
         id="path1666"
         style="fill:url(#linearGradient1694);fill-opacity:1;stroke:#000000;stroke-width:10.5705;stroke-linecap:round;stroke-linejoin:round;stroke-miterlimit:4;stroke-dasharray:none"
         d="m 524.56742,257.76844 182.4204,74.44039 c 10.3754,4.2339 4.0522,37.73032 4.0523,45.0425 -10e-5,7.31213 -4.8524,14.62431 -14.557,20.22727 l -364.5758,210.48795 c -19.4093,11.2059 -50.66017,11.2059 -70.06944,0 L 89.922203,508.71098 c -9.70462,-5.60295 -14.55692,-12.91513 -14.55693,-20.22729 0,-7.31218 -5.38146,-41.50921 4.67313,-46.45672 L 454.49802,257.76844 c 20.1092,-9.89502 49.3188,-8.46771 70.0694,0 z"
         sodipodi:nodetypes="sssssssssss" />
      <rect
         transform="matrix(0.8660254,0.5,-0.8660254,0.5,0,0)"
         style="fill:url(#linearGradient1692);fill-opacity:1;stroke:#000000;stroke-width:11.3588;stroke-linecap:round;stroke-linejoin:round;stroke-miterlimit:4;stroke-dasharray:none"
         id="rect1668"
         width="279.42035"
         height="501.88507"
         x="485.80518"
         y="-79.458458"
         ry="40.454594" />
      <g
         style="fill:#000000;stroke:none;stroke-width:0.884243"
         id="g1710"
         transform="matrix(0.86602541,0.50000001,-0.85707106,0.49483021,398.30442,29.418659)">
        <path
           sodipodi:nodetypes="sssssssss"
           d="m 362.3027,155.10775 h 81.7805 c 22.64604,0 40.87733,16.95094 40.87733,38.00659 v 78.58506 c 0,21.05565 -18.23129,-2.86066 -40.87733,-2.86066 h -81.7805 c -22.64604,0 -40.87733,-16.95094 -40.87733,-38.00659 v -37.71781 c 0,-21.05565 18.23129,-38.00659 40.87733,-38.00659 z"
           style="fill:#000000;fill-opacity:0.25;stroke:none;stroke-width:11.418;stroke-linecap:round;stroke-linejoin:round;stroke-miterlimit:4;stroke-dasharray:none"
           id="path1704" />
        <path
           id="path1706"
           style="fill:#000000;fill-opacity:0.25;stroke:none;stroke-width:11.418;stroke-linecap:round;stroke-linejoin:round;stroke-miterlimit:4;stroke-dasharray:none"
           d="m 370.97438,302.45802 h -81.7805 c -22.64604,0 -40.87733,16.95094 -40.87733,38.00659 v 78.58506 c 0,21.05565 18.23129,-2.86066 40.87733,-2.86066 h 81.7805 c 22.64604,0 40.87733,-16.95094 40.87733,-38.00659 v -37.71781 c 0,-21.05565 -18.23129,-38.00659 -40.87733,-38.00659 z"
           sodipodi:nodetypes="sssssssss" />
        <path
           id="path1708"
           style="fill:#000000;fill-opacity:0.25;stroke:none;stroke-width:11.418;stroke-linecap:round;stroke-linejoin:round;stroke-miterlimit:4;stroke-dasharray:none"
           d="m 362.3027,445.67776 h 81.7805 c 22.64604,0 40.87733,16.95094 40.87733,38.00659 v 56.22951 c 0,21.05565 -18.23129,-2.86066 -40.87733,-2.86066 h -81.7805 c -22.64604,0 -40.87733,-16.95094 -40.87733,-38.00659 v -15.36226 c 0,-21.05565 18.23129,-38.00659 40.87733,-38.00659 z"
           sodipodi:nodetypes="sssssssss" />
      </g>
      <g
         transform="matrix(0.86602541,0.50000001,-0.85707106,0.49483021,398.30442,-21.552051)"
         id="g1676"
         style="stroke-width:0.884243">
        <path
           id="path1670"
           style="fill:#2ca02c;stroke:#000000;stroke-width:11.418;stroke-linecap:round;stroke-linejoin:round;stroke-miterlimit:4;stroke-dasharray:none"
           d="m 362.3027,155.10775 h 81.7805 c 22.64604,0 40.87733,16.95094 40.87733,38.00659 v 78.58506 c 0,21.05565 -18.23129,-2.86066 -40.87733,-2.86066 h -81.7805 c -22.64604,0 -40.87733,-16.95094 -40.87733,-38.00659 v -37.71781 c 0,-21.05565 18.23129,-38.00659 40.87733,-38.00659 z"
           sodipodi:nodetypes="sssssssss" />
        <path
           sodipodi:nodetypes="sssssssss"
           d="m 370.97438,302.45802 h -81.7805 c -22.64604,0 -40.87733,16.95094 -40.87733,38.00659 v 78.58506 c 0,21.05565 18.23129,-2.86066 40.87733,-2.86066 h 81.7805 c 22.64604,0 40.87733,-16.95094 40.87733,-38.00659 v -37.71781 c 0,-21.05565 -18.23129,-38.00659 -40.87733,-38.00659 z"
           style="fill:#2ca02c;stroke:#000000;stroke-width:11.418;stroke-linecap:round;stroke-linejoin:round;stroke-miterlimit:4;stroke-dasharray:none"
           id="path1672" />
        <path
           sodipodi:nodetypes="sssssssss"
           d="m 362.3027,445.67776 h 81.7805 c 22.64604,0 40.87733,16.95094 40.87733,38.00659 v 56.22951 c 0,21.05565 -18.23129,-2.86066 -40.87733,-2.86066 h -81.7805 c -22.64604,0 -40.87733,-16.95094 -40.87733,-38.00659 v -15.36226 c 0,-21.05565 18.23129,-38.00659 40.87733,-38.00659 z"
           style="fill:#2ca02c;stroke:#000000;stroke-width:11.418;stroke-linecap:round;stroke-linejoin:round;stroke-miterlimit:4;stroke-dasharray:none"
           id="path1674" />
      </g>
      <g
         style="stroke-width:0.818983"
         transform="matrix(0.93502935,0.53983946,-0.92536153,0.53425773,369.30602,-96.486191)"
         id="g1686">
        <path
           sodipodi:nodetypes="ssssssss"
           d="m 576.27251,462.48864 c 0,49.21893 -39.89982,89.11875 -89.11875,89.11875 -12.30473,0 -24.02702,-2.49374 -34.68904,-7.00339 -10.66202,-4.50966 -41.00409,8.57276 -49.06775,0.5091 -8.06366,-8.06366 6.15109,-37.2734 1.64143,-47.93542 -4.50965,-10.66202 -7.00339,-22.38431 -7.00339,-34.68904 0,-49.21893 39.89982,-89.11875 89.11875,-89.11875 49.21893,0 89.11875,39.89982 89.11875,89.11875 z"
           style="fill:#000000;fill-opacity:0.25;stroke:none;stroke-width:8.66757;stroke-linecap:round;stroke-linejoin:round;stroke-miterlimit:4;stroke-dasharray:none;stroke-opacity:1"
           id="path1730" />
        <path
           id="path1678"
           style="fill:url(#radialGradient1690);fill-opacity:1;stroke:#ffffff;stroke-width:8.66757;stroke-linecap:round;stroke-linejoin:round;stroke-miterlimit:4;stroke-dasharray:none;stroke-opacity:1"
           d="m 452.31312,337.23418 c 0,49.21893 -39.89982,89.11875 -89.11875,89.11875 -12.30473,0 -24.02702,-2.49374 -34.68904,-7.00339 -10.66202,-4.50966 -41.00409,8.57276 -49.06775,0.5091 -8.06366,-8.06366 6.15109,-37.2734 1.64143,-47.93542 -4.50965,-10.66202 -7.00339,-22.38431 -7.00339,-34.68904 0,-49.21893 39.89982,-89.11875 89.11875,-89.11875 49.21893,0 89.11875,39.89982 89.11875,89.11875 z"
           sodipodi:nodetypes="ssssssss" />
        <g
           style="stroke-width:0.818983"
           id="g1684"
           transform="matrix(0.26458333,0,0,0.26458333,304.46952,257.56211)">
          <g
             style="stroke-width:0.818983"
             id="g1682">
            <path
               id="path1680"
               d="M 253.7172,362.91373 C 213.81412,352.72463 159.94496,299.7413 149.96919,256.94707 203.2056,147.37737 137.02517,83.310206 40.235701,130.6022 -38.638156,169.1405 46.8978,327.74024 109.59876,392.92548 174.32661,460.21791 320.79879,540.3489 377.41675,474.99386 457.24245,382.84974 352.07662,305.81346 253.7172,362.91373 Z"
               sodipodi:nodetypes="ccsasc"
               style="fill:#ffffff;stroke-width:0.818983" />
          </g>
        </g>
      </g>
      <path
         id="path1688"
         d="m 166.72018,495.11454 58.56694,34.47603"
         style="fill:none;stroke:#ffffff;stroke-width:8.66364;stroke-linecap:round;stroke-linejoin:round;stroke-miterlimit:4;stroke-dasharray:none;stroke-opacity:1" />
    </g>
  </g>
</svg>
